PathFileType	4	(X/Y/Z)	C:/Users/beibeiliu/ov580/test_trc/capture2\sequence.8_training_dense_left.trc
DataRate	CameraRate	NumFrames	NumMarkers	Units	OrigDataRate	OrigDataStartFrame	OrigNumFrames
120	120	23	19	mm	120	51	400
Frame#	Time	ThumbCMC			ThumbMCP			ThumbIP			ThumbTip			IndexMCP			IndexPIP			IndexTip			MiddleMCP			MiddlePIP			MiddleTip			RingMCP			RingPIP			RingTip			PinkyMCP			PinkyPIP			PinkyTip			BackHand1			BackHand2			BackHand3	
		X0	Y0	Z0	X1	Y1	Z1	X2	Y2	Z2	X3	Y3	Z3	X4	Y4	Z4	X5	Y5	Z5	X6	Y6	Z6	X7	Y7	Z7	X8	Y8	Z8	X9	Y9	Z9	X10	Y10	Z10	X11	Y11	Z11	X12	Y12	Z12	X13	Y13	Z13	X14	Y14	Z14	X15	Y15	Z15	X16	Y16	Z16	X17	Y17	Z17	X18	Y18	Z18	
50	0.416667	-90.5275	68.7238	-34.5462	-72.35	60.9349	-52.2248	-50.9466	61.5892	-63.4814	-29.6821	63.1219	-67.5401	-90.1542	91.2216	-104.909	-85.7557	99.6127	-129.385	-79.0134	110.355	-143.769	-118.482	97.9232	-115.521	-118.147	105.825	-138.396	-119.986	119.328	-157.834	-141.172	92.1223	-113.328	-147.965	98.2746	-137.069	-150.616	111.073	-157.986	-166.743	77.1343	-107.706	-176.034	75.1276	-119.671	-184.969	86.6023	-132.08	-144.348	94.1356	-64.4435	-147.759	94.1388	-38.1219	-115.602	94.557	-49.466	
51	0.425	-90.5917	65.6888	-34.1003	-70.2567	57.4978	-47.9559	-51.3857	58.1739	-63.7476	-28.1157	61.9313	-70.555	-93.7385	82.984	-109.263	-86.6403	86.7161	-130.694	-84.0673	99.6849	-150.275	-120.435	85.4624	-116.81	-118.366	90.2212	-137.397	-124.511	106.422	-163.85	-141.024	78.6928	-115.605	-146.16	82.3711	-138.238	-154.689	90.2932	-157.364	-168.949	62.0303	-103.518	-176.927	58.3771	-122.965	-186.986	65.8085	-137.008	-144.972	83.624	-67.4734	-151.651	84.7786	-38.6336	-115.634	89.1304	-51.535	
52	0.433333	-94.8232	65.0486	-38.3059	-75.1532	56.2182	-49.0465	-47.8268	60.8089	-67.3659	-30.6172	62.2278	-73.0915	-99.3535	74.5254	-110.428	-92.2606	76.3037	-131.977	-90.2955	86.3894	-153.837	-125.6	75.5909	-121.577	-122.39	78.291	-139.512	-123.965	89.2296	-165.082	-147.728	63.3103	-113.976	-148.353	65.3491	-137.85	-156.55	72.077	-160.491	-169.086	46.3617	-103.137	-177.222	40.2071	-121.816	-193.639	46.9167	-136.071	-147.58	72.8823	-69.3841	-155.592	78.9087	-37.5857	-119.12	83.9635	-55.269	
53	0.441667	-95.4323	64.0911	-35.894	-73.5459	57.3055	-53.2449	-50.909	60.5835	-67.588	-35.8376	62.2171	-74.9971	-102.658	65.9941	-110.768	-95.0038	66.1083	-133.953	-93.6632	72.6675	-152.286	-124.528	63.7351	-121.739	-126.717	64.8064	-144.107	-131.159	71.548	-167.127	-144.152	50.9047	-116.375	-150.349	47.1726	-136.212	-154.086	51.5683	-158.052	-166.08	33.126	-102.142	-173.319	23.2318	-119.458	-188.608	24.4056	-133.68	-154.967	64.6789	-66.3617	-157.251	70.6882	-40.452	-122.715	78.5478	-56.9436	
54	0.45	-98.6277	64.2009	-41.6892	-79.064	57.4411	-52.647	-56.5556	62.1871	-69.5079	-41.0906	64.769	-78.9059	-107.6	57.7948	-112.994	-100.563	57.414	-138.083	-101.034	60.7536	-155.114	-133.253	49.5357	-120.075	-130.269	48.626	-145.26	-134.828	53.556	-169.359	-150.05	34.1578	-113.111	-154.058	28.7651	-137.083	-155.396	29.64	-158.498	-166.302	15.3863	-100.562	-171.445	4.17529	-114.253	-184.276	-1.06472	-131.038	-157.94	53.1439	-68.4623	-162.281	58.9187	-38.9276	-128.726	71.0805	-56.6283	
55	0.458333	-106.263	62.6555	-42.521	-81.9598	60.5605	-57.1573	-65.1879	62.6633	-74.1527	-45.7631	72.0874	-83.5786	-114.769	49.8778	-112.565	-107.384	46.345	-137.185	-108.529	48.6463	-158.97	-135.002	38.6734	-119.847	-133.823	35.1547	-144.3	-140.622	32.2715	-165.729	-148.735	22.8836	-110.137	-153.529	11.8688	-136.166	-156.311	8.59681	-155.999	-164.91	0.343213	-94.7267	-164.963	-11.6818	-107.513	-181.497	-25.1639	-124.728	-158.304	42.7657	-67.1056	-163.37	52.086	-41.8465	-138.291	67.1154	-56.7233	
56	0.466667	-112.509	63.9117	-47.4514	-89.5904	64.4757	-60.5387	-72.2766	69.258	-79.5242	-58.1292	75.7403	-88.7991	-119.318	44.2921	-116.445	-111.787	40.4189	-137.719	-112.958	39.967	-158.628	-139.969	26.6331	-121.552	-139.603	18.2971	-144.396	-145.869	12.9233	-168.642	-150.673	8.72756	-107.854	-152.966	-5.69075	-132.028	-154.696	-11.2655	-155.115	-160.13	-9.78693	-89.1356	-159.984	-26.1565	-100.704	-173.129	-43.6918	-115.434	-165.281	28.9861	-70.2021	-171.913	42.3463	-39.5241	-142.725	58.7428	-61.9506	
57	0.475	-122.84	62.3116	-47.2718	-102.045	63.9012	-63.5218	-85.6401	66.8838	-87.2517	-72.8728	75.9129	-99.6864	-124.718	35.9865	-120.291	-120.363	29.9501	-140.915	-120.601	28.6467	-163.66	-144.886	14.5246	-120.52	-142.565	6.07458	-138.904	-146.992	-3.29042	-168.553	-151.137	-5.24726	-110.303	-150.793	-17.7109	-127.938	-151.843	-29.0277	-146.403	-158.404	-23.2372	-84.8788	-157.885	-43.5077	-95.1821	-166.416	-58.7741	-106.078	-166.778	18.6026	-65.8849	-172.784	35.4969	-42.2422	-152.988	51.6084	-62.1762	
58	0.483333	-130.136	63.6896	-51.5023	-111.127	63.4333	-68.7535	-98.1397	70.3485	-89.2965	-86.1545	79.0984	-107.234	-132.258	28.5914	-118.732	-126.333	22.3449	-140.361	-127.764	17.2467	-167.402	-147.017	4.5937	-117.338	-143.416	-6.99414	-143.041	-146.936	-16.1446	-167.306	-152.273	-14.5764	-104.546	-149.374	-31.3997	-123.902	-148.857	-42.799	-141.957	-155.796	-33.2248	-81.4893	-150.998	-49.8778	-91.0051	-156.81	-72.1853	-102.212	-166.975	12.3332	-69.4504	-177.236	25.0438	-40.6659	-159.762	42.92	-65.6778	
59	0.491667	-138.211	61.3066	-53.8337	-119.814	62.7965	-72.5742	-108.304	69.1477	-94.5339	-97.7884	76.0037	-114.098	-135.345	22.7502	-123.916	-128.866	18.1848	-145.791	-131.601	8.60701	-163.156	-148.367	-6.00068	-119.427	-143.672	-14.5651	-138.007	-146.047	-30.6944	-160.951	-150.834	-24.7519	-105.275	-145.607	-39.3934	-123.421	-146.231	-57.1188	-142.553	-151.13	-38.1809	-77.8363	-144.649	-61.4007	-87.9937	-145.852	-77.9764	-96.4489	-171.933	2.02072	-63.5278	-181.584	15.7515	-41.6372	-163.728	39.142	-68.1597	
60	0.5	-146.545	58.4291	-56.9652	-129.451	60.9108	-75.3522	-117.282	69.0182	-102.27	-110.189	74.3266	-118.349	-140.401	16.4724	-118.566	-134.585	9.14528	-141.664	-136.359	-0.964839	-167.008	-147.478	-8.63084	-119.295	-142.583	-22.5419	-135.319	-143.822	-36.0896	-163.314	-149.253	-29.9869	-102.698	-143.497	-47.6048	-118.592	-139.858	-60.7737	-137.436	-146.547	-42.9411	-77.9154	-138.925	-63.0157	-82.8135	-140.986	-83.1001	-91.3736	-169.886	-3.77122	-68.0308	-182.379	11.9953	-40.94	-168.445	27.9516	-66.5892	
61	0.508333	-152.721	55.683	-60.9168	-136.487	61.832	-78.6952	-127.143	69.6663	-101.895	-120.258	77.9449	-122.267	-143.723	9.83069	-119.16	-137.209	3.08869	-143.107	-136.998	-2.73811	-166.015	-146.698	-15.4079	-119.376	-141.198	-30.3064	-137.696	-140.959	-43.3812	-160.808	-146.418	-35.383	-98.6783	-138.908	-49.5893	-117.483	-134.516	-68.7879	-135.096	-142.961	-49.5955	-74.109	-132.737	-66.0665	-81.8696	-129.287	-84.9994	-90.6794	-169.443	-10.7443	-66.7398	-182.014	4.37361	-43.3338	-173.863	28.4143	-69.3137	
62	0.516667	-159.19	53.6778	-61.729	-142.689	59.2748	-83.7147	-135.621	66.6125	-102.855	-130.1	75.4532	-125.845	-145.029	7.42865	-123.286	-138.733	1.81199	-142.672	-136.893	-11.132	-166.432	-146.852	-17.1029	-117.164	-139.453	-30.6195	-139.183	-138.474	-48.0961	-157.106	-142.601	-37.2354	-99.8878	-135.011	-48.8808	-116.191	-127.369	-69.1375	-135.114	-138.18	-47.7376	-73.1619	-125.879	-64.5982	-78.978	-121.648	-86.5769	-87.1805	-172.297	-9.67147	-63.9546	-183.076	3.12585	-43.2602	-175.976	22.1983	-69.6427	
63	0.525	-164.837	50.9053	-63.3876	-150.487	59.3216	-83.5149	-143.633	65.9229	-106.016	-138.564	74.8893	-127	-146.709	6.81879	-122.344	-138.623	-0.975239	-144.963	-136.611	-11.447	-166.377	-145.698	-19.9483	-117.167	-138.077	-29.8803	-135.345	-133.807	-45.2943	-158.909	-141.018	-34.0447	-96.9435	-129.878	-49.2249	-115.591	-121.745	-67.3899	-130.874	-134.84	-43.0568	-72.8394	-119.91	-60.435	-76.2106	-112.418	-80.409	-88.1071	-170.019	-11.3328	-64.3859	-185.721	-4.16617	-39.1916	-179.565	18.4701	-72.3294	
64	0.533333	-169.837	47.644	-64.9627	-156.973	61.2892	-82.3434	-150.729	68.9286	-111.919	-146.023	75.6477	-127.302	-147.527	5.27669	-124.064	-139.155	-0.981318	-146.092	-136.277	-8.50804	-163.713	-145.621	-16.6148	-117.817	-134.947	-30.4884	-136.798	-130.139	-45.944	-157.627	-137.191	-35.8078	-97.1054	-126.442	-47.4118	-112.449	-116.04	-63.2825	-131.438	-128.346	-40.1818	-73.409	-113.783	-55.903	-77.3046	-106.386	-76.0794	-81.1758	-168.074	-14.1915	-62.8347	-182.506	-3.79745	-39.7903	-179.79	17.3359	-70.328	
65	0.541667	-173.415	49.0469	-65.5457	-160.535	60.5298	-88.253	-156.245	70.1403	-106.809	-154.455	78.3732	-127.785	-150.679	9.02015	-120.386	-138.754	-0.0477544	-143.862	-135.615	-11.4505	-165.135	-144.112	-14.8016	-117.455	-132.244	-29.3731	-134.199	-126.812	-43.7188	-151.873	-133.827	-29.03	-99.703	-121.329	-43.8666	-114.078	-111.379	-60.5802	-128.969	-121.917	-37.6638	-73.6999	-107.322	-50.686	-73.8838	-100.227	-68.7533	-85.5821	-165.73	-12.0737	-60.1073	-180.526	-7.98141	-40.2955	-182.004	13.5132	-68.1423	
66	0.55	-177.078	50.7029	-66.3975	-167.094	63.4465	-85.3487	-161.94	71.1007	-109.667	-162.575	81.8607	-127.715	-152.117	11.0921	-120.442	-141.013	3.72842	-142.919	-135.418	-7.53941	-164.119	-142.543	-15.472	-116.045	-133.938	-21.9616	-132.685	-123.872	-41.0673	-154.699	-131.387	-27.8161	-97.8409	-119.284	-42.583	-110.377	-109.725	-54.144	-127.033	-122.221	-32.6498	-69.3571	-104.65	-43.501	-75.959	-94.4069	-64.3149	-78.7932	-165.868	-11.4546	-60.4273	-178.034	-5.98927	-38.9301	-183.824	13.8353	-67.9654	
67	0.558333	-180.345	50.7083	-67.3219	-168.925	63.1059	-84.6288	-167.493	72.7664	-110.68	-165.293	79.7603	-129.974	-150.464	9.63173	-119.985	-140.778	6.11445	-141.866	-136.257	-4.52973	-162.542	-140.824	-13.2054	-113.747	-129.906	-23.7494	-133.423	-121.84	-38.8003	-151.697	-129.871	-25.2811	-96.9139	-115.086	-38.9391	-112.968	-105.025	-51.9146	-129.441	-116.276	-32.1022	-70.7577	-99.9619	-42.944	-75.5276	-88.2231	-61.3848	-83.5038	-164.173	-12.652	-60.2665	-176.617	-4.61169	-39.7927	-182.841	13.5778	-68.0384	
68	0.566667	-182.016	51.2492	-65.9069	-171.797	64.4494	-84.9208	-169.841	70.8468	-106.845	-171.538	82.1175	-127.408	-150.225	11.7547	-123.631	-140.202	5.57473	-146.215	-133.954	-5.69515	-161.925	-140.108	-12.1974	-114.41	-128.076	-20.9221	-130.849	-120.756	-33.3645	-153.079	-129.096	-20.8375	-97.0369	-113.162	-33.9032	-111.687	-101.502	-48.5978	-125.192	-114.639	-28.7418	-68.4324	-98.0568	-37.7561	-77.1325	-86.7018	-54.0261	-84.7209	-159.944	-11.4357	-63.1289	-176	-7.5785	-38.0012	-180.391	12.4862	-67.708	
69	0.575	-181.406	48.944	-63.4544	-172.404	62.8339	-86.9132	-174.207	72.2847	-109.87	-176.779	82.9137	-126.18	-151.394	15.9836	-125.399	-139.078	9.01284	-146.472	-132.99	-2.13334	-163.512	-135.56	-10.4147	-116.552	-125.526	-18.4606	-131.207	-117.153	-32.3605	-155.058	-122.603	-19.6071	-95.6163	-109.513	-30.0368	-108.733	-97.7758	-41.5178	-127.698	-110.256	-24.8272	-69.6407	-94.3908	-31.684	-77.4641	-83.1823	-47.8635	-80.6282	-158.627	-10.8134	-59.0993	-173.784	-5.18643	-34.0176	-179.74	13.113	-66.6846	
70	0.583333	-184.557	50.2399	-65.2102	-173.228	60.9496	-84.1927	-177.139	72.4245	-109.356	-181.697	81.4782	-127.566	-152.015	16.4108	-125.046	-143.828	14.0988	-143.064	-133.281	-1.04989	-165.607	-137.195	-5.05556	-115.986	-123.755	-15.6707	-131.925	-116.348	-26.4939	-155.375	-121.53	-17.2514	-95.2216	-105.84	-26.6545	-114.582	-92.4537	-41.0014	-131.306	-106.579	-21.9971	-69.792	-91.3896	-27.8072	-72.6595	-76.4732	-44.6944	-84.3957	-154.157	-10.8271	-60.6005	-173.272	-1.5477	-37.3863	-179.623	13.3854	-66.1428	
71	0.591667	-184.025	48.4548	-67.8137	-178.054	63.8506	-82.3018	-178.269	71.1657	-107.954	-185.618	83.0475	-126.02	-148.567	14.2098	-123.028	-140.629	12.3101	-146.115	-133.211	0.995203	-166.834	-136.88	-5.39046	-115.136	-124.414	-12.2479	-134.574	-113.938	-27.744	-157.593	-119.647	-14.3757	-99.7749	-106.663	-22.6115	-111.128	-91.0545	-38.2519	-131.873	-108.67	-16.6148	-69.0351	-89.0197	-24.4187	-77.1465	-75.9175	-42.8007	-85.5173	-152.214	-9.40255	-62.41	-170.629	-4.33831	-37.9905	-180.25	14.3758	-69.498	
72	0.6	-186.812	50.4448	-63.6763	-178.333	63.7483	-82.8195	-183.186	73.7151	-107.525	-185.656	81.191	-126.326	-149.743	15.5093	-123.64	-141.103	12.1616	-143.9	-135.306	4.62463	-164.535	-133.161	-5.74242	-116.501	-119.856	-14.1019	-135.144	-111.608	-25.7138	-154.803	-118.362	-13.3712	-98.5768	-104.595	-22.0464	-115.086	-91.4556	-34.1385	-134.094	-108.012	-13.7592	-73.6176	-88.7968	-21.8692	-76.8935	-75.4742	-41.0112	-81.6771	-152.746	-9.69546	-59.8639	-172.127	-3.2118	-36.3054	-178.998	13.0691	-66.0583	
